<?xml version="1.0" standalone="no"?>
<!DOCTYPE svg PUBLIC "-//W3C//DTD SVG 20010904//EN"
 "http://www.w3.org/TR/2001/REC-SVG-20010904/DTD/svg10.dtd">
<svg version="1.0" xmlns="http://www.w3.org/2000/svg"
 width="512.000000pt" height="512.000000pt" viewBox="0 0 512.000000 512.000000"
 preserveAspectRatio="xMidYMid meet">

<g transform="translate(0.000000,512.000000) scale(0.100000,-0.100000)"
fill="#000000" stroke="none">
<path d="M2392 4975 c-104 -45 -133 -93 -257 -415 -193 -506 -473 -1257 -505
-1355 -91 -278 -241 -628 -327 -760 -53 -81 -126 -145 -166 -145 -47 0 -110
36 -174 98 -108 105 -190 255 -248 453 -50 169 -92 247 -185 340 -86 87 -172
136 -287 164 -172 42 -254 -17 -239 -170 9 -93 41 -191 146 -455 172 -433 243
-676 330 -1132 53 -279 75 -371 117 -483 125 -337 383 -612 723 -774 192 -91
481 -176 684 -201 129 -17 343 -7 452 19 249 61 458 185 675 401 135 134 136
136 206 275 69 136 124 263 273 625 79 193 130 293 254 499 190 315 547 860
657 1001 90 117 115 215 65 265 -29 29 -75 38 -164 33 -79 -4 -177 -47 -232
-100 -19 -19 -162 -190 -318 -381 -156 -191 -293 -354 -305 -362 -12 -8 -39
-15 -59 -15 -32 0 -41 5 -58 33 -37 60 -38 57 145 392 51 94 149 274 217 400
69 127 197 363 285 525 88 162 168 319 178 348 25 78 17 159 -19 207 -43 56
-121 88 -199 83 -151 -10 -181 -45 -446 -508 -244 -427 -451 -774 -556 -935
-74 -115 -134 -175 -172 -175 -30 0 -47 34 -39 79 5 33 153 374 588 1356 185
418 190 432 192 521 0 63 -3 77 -29 120 -59 94 -191 132 -292 83 -92 -44 -60
14 -689 -1272 -144 -296 -275 -554 -289 -574 -15 -19 -38 -39 -51 -45 -21 -10
-28 -8 -47 11 -28 28 -27 88 3 191 50 171 298 962 406 1292 64 196 69 254 29
334 -49 97 -180 149 -273 109z"/>
<path d="M1366 4778 c-252 -230 -520 -640 -650 -993 -46 -124 -106 -337 -106
-375 0 -11 16 -28 38 -41 20 -13 47 -29 59 -36 21 -14 22 -12 33 44 20 107 81
307 126 418 133 326 324 615 562 853 68 68 122 125 120 126 -2 2 -28 17 -59
34 l-56 32 -67 -62z"/>
<path d="M1555 4426 c-237 -263 -422 -578 -541 -919 -19 -55 -34 -100 -34
-102 0 -1 27 -19 60 -39 40 -23 62 -31 64 -23 51 176 175 454 280 627 72 117
202 291 291 388 37 40 66 74 64 76 -2 1 -29 17 -61 35 l-56 31 -67 -74z"/>
<path d="M4996 2742 c-2 -4 -7 -25 -11 -47 -13 -72 -76 -268 -120 -377 -145
-352 -378 -689 -639 -921 -59 -53 -81 -78 -73 -85 7 -5 34 -21 60 -36 l48 -27
38 30 c21 17 86 81 145 141 286 300 511 686 629 1080 55 185 56 172 -13 214
-33 19 -61 32 -64 28z"/>
<path d="M4646 2653 c-104 -334 -300 -676 -543 -950 -40 -45 -73 -84 -73 -86
0 -3 25 -19 56 -37 67 -38 55 -45 184 110 199 239 356 510 464 803 57 154 58
149 -7 186 -30 17 -56 31 -59 31 -2 0 -12 -26 -22 -57z"/>
</g>
</svg>
